<svg id="my-svg" width="100%" xmlns="http://www.w3.org/2000/svg" xmlns:xlink="http://www.w3.org/1999/xlink" class="flowchart" style="max-width: 965.547px; background-color: white;" viewBox="0 0 965.546875 1452.324951171875" role="graphics-document document" aria-roledescription="flowchart-v2"><style>#my-svg{font-family:Segoe UI,Roboto,Arial,sans-serif;font-size:15px;fill:#241b3a;}@keyframes edge-animation-frame{from{stroke-dashoffset:0;}}@keyframes dash{to{stroke-dashoffset:0;}}#my-svg .edge-animation-slow{stroke-dasharray:9,5!important;stroke-dashoffset:900;animation:dash 50s linear infinite;stroke-linecap:round;}#my-svg .edge-animation-fast{stroke-dasharray:9,5!important;stroke-dashoffset:900;animation:dash 20s linear infinite;stroke-linecap:round;}#my-svg .error-icon{fill:#f8fafc;}#my-svg .error-text{fill:#070503;stroke:#070503;}#my-svg .edge-thickness-normal{stroke-width:1px;}#my-svg .edge-thickness-thick{stroke-width:3.5px;}#my-svg .edge-pattern-solid{stroke-dasharray:0;}#my-svg .edge-thickness-invisible{stroke-width:0;fill:none;}#my-svg .edge-pattern-dashed{stroke-dasharray:3;}#my-svg .edge-pattern-dotted{stroke-dasharray:2;}#my-svg .marker{fill:#6f6391;stroke:#6f6391;}#my-svg .marker.cross{stroke:#6f6391;}#my-svg svg{font-family:Segoe UI,Roboto,Arial,sans-serif;font-size:15px;}#my-svg p{margin:0;}#my-svg .label{font-family:Segoe UI,Roboto,Arial,sans-serif;color:#241b3a;}#my-svg .cluster-label text{fill:#070503;}#my-svg .cluster-label span{color:#070503;}#my-svg .cluster-label span p{background-color:transparent;}#my-svg .label text,#my-svg span{fill:#241b3a;color:#241b3a;}#my-svg .node rect,#my-svg .node circle,#my-svg .node ellipse,#my-svg .node polygon,#my-svg .node path{fill:#f4f1fb;stroke:#8b5cf6;stroke-width:1px;}#my-svg .rough-node .label text,#my-svg .node .label text,#my-svg .image-shape .label,#my-svg .icon-shape .label{text-anchor:middle;}#my-svg .node .katex path{fill:#000;stroke:#000;stroke-width:1px;}#my-svg .rough-node .label,#my-svg .node .label,#my-svg .image-shape .label,#my-svg .icon-shape .label{text-align:center;}#my-svg .node.clickable{cursor:pointer;}#my-svg .root .anchor path{fill:#6f6391!important;stroke-width:0;stroke:#6f6391;}#my-svg .arrowheadPath{fill:#0b0b0b;}#my-svg .edgePath .path{stroke:#6f6391;stroke-width:1px;}#my-svg .flowchart-link{stroke:#6f6391;fill:none;}#my-svg .edgeLabel{background-color:#eef2ff;text-align:center;}#my-svg .edgeLabel p{background-color:#eef2ff;}#my-svg .edgeLabel rect{opacity:0.5;background-color:#eef2ff;fill:#eef2ff;}#my-svg .labelBkg{background-color:rgba(238, 242, 255, 0.5);}#my-svg .cluster rect{fill:#faf8ff;stroke:#c9bdec;stroke-width:1px;}#my-svg .cluster text{fill:#070503;}#my-svg .cluster span{color:#070503;}#my-svg div.mermaidTooltip{position:absolute;text-align:center;max-width:200px;padding:2px;font-family:Segoe UI,Roboto,Arial,sans-serif;font-size:12px;background:#f8fafc;border:1px solid hsl(210, 0%, 88.0392156863%);border-radius:2px;pointer-events:none;z-index:100;}#my-svg .flowchartTitleText{text-anchor:middle;font-size:18px;fill:#241b3a;}#my-svg rect.text{fill:none;stroke-width:0;}#my-svg .icon-shape,#my-svg .image-shape{background-color:#eef2ff;text-align:center;}#my-svg .icon-shape p,#my-svg .image-shape p{background-color:#eef2ff;padding:2px;}#my-svg .icon-shape .label rect,#my-svg .image-shape .label rect{opacity:0.5;background-color:#eef2ff;fill:#eef2ff;}#my-svg .label-icon{display:inline-block;height:1em;overflow:visible;vertical-align:-0.125em;}#my-svg .node .label-icon path{fill:currentColor;stroke:revert;stroke-width:revert;}#my-svg .node .neo-node{stroke:#8b5cf6;}#my-svg [data-look="neo"].node rect,#my-svg [data-look="neo"].cluster rect,#my-svg [data-look="neo"].node polygon{stroke:url(#my-svg-gradient);filter:drop-shadow( 1px 2px 2px rgba(185,185,185,1));}#my-svg [data-look="neo"].swimlane.cluster rect{filter:none;}#my-svg [data-look="neo"].node path{stroke:url(#my-svg-gradient);stroke-width:1px;}#my-svg [data-look="neo"].node .outer-path{filter:drop-shadow( 1px 2px 2px rgba(185,185,185,1));}#my-svg [data-look="neo"].node .neo-line path{stroke:#8b5cf6;filter:none;}#my-svg [data-look="neo"].node circle{stroke:url(#my-svg-gradient);filter:drop-shadow( 1px 2px 2px rgba(185,185,185,1));}#my-svg [data-look="neo"].node circle .state-start{fill:#000000;}#my-svg [data-look="neo"].icon-shape .icon{fill:url(#my-svg-gradient);filter:drop-shadow( 1px 2px 2px rgba(185,185,185,1));}#my-svg [data-look="neo"].icon-shape .icon-neo path{stroke:url(#my-svg-gradient);filter:drop-shadow( 1px 2px 2px rgba(185,185,185,1));}#my-svg :root{--mermaid-font-family:"trebuchet ms",verdana,arial,sans-serif;}#my-svg .store&gt;*{fill:rgb(238, 242, 255)!important;stroke:rgb(79, 107, 237)!important;color:rgb(26, 42, 107)!important;}#my-svg .store span{fill:rgb(238, 242, 255)!important;stroke:rgb(79, 107, 237)!important;color:rgb(26, 42, 107)!important;}#my-svg .store tspan{fill:rgb(26, 42, 107)!important;}#my-svg .ext&gt;*{fill:rgb(237, 233, 254)!important;stroke:rgb(124, 58, 237)!important;color:rgb(42, 27, 80)!important;}#my-svg .ext span{fill:rgb(237, 233, 254)!important;stroke:rgb(124, 58, 237)!important;color:rgb(42, 27, 80)!important;}#my-svg .ext tspan{fill:rgb(42, 27, 80)!important;}</style><g><marker id="my-svg_flowchart-v2-pointEnd" class="marker flowchart-v2" viewBox="0 0 10 10" refX="5" refY="5" markerUnits="userSpaceOnUse" markerWidth="8" markerHeight="8" orient="auto"><path d="M 0 0 L 10 5 L 0 10 z" class="arrowMarkerPath" style="stroke-width: 1; stroke-dasharray: 1, 0;"/></marker><marker id="my-svg_flowchart-v2-pointStart" class="marker flowchart-v2" viewBox="0 0 10 10" refX="4.5" refY="5" markerUnits="userSpaceOnUse" markerWidth="8" markerHeight="8" orient="auto"><path d="M 0 5 L 10 10 L 10 0 z" class="arrowMarkerPath" style="stroke-width: 1; stroke-dasharray: 1, 0;"/></marker><marker id="my-svg_flowchart-v2-pointEnd-margin" class="marker flowchart-v2" viewBox="0 0 11.5 14" refX="11.5" refY="7" markerUnits="userSpaceOnUse" markerWidth="10.5" markerHeight="14" orient="auto"><path d="M 0 0 L 11.5 7 L 0 14 z" class="arrowMarkerPath" style="stroke-width: 0; stroke-dasharray: 1, 0;"/></marker><marker id="my-svg_flowchart-v2-pointStart-margin" class="marker flowchart-v2" viewBox="0 0 11.5 14" refX="1" refY="7" markerUnits="userSpaceOnUse" markerWidth="11.5" markerHeight="14" orient="auto"><polygon points="0,7 11.5,14 11.5,0" class="arrowMarkerPath" style="stroke-width: 0; stroke-dasharray: 1, 0;"/></marker><marker id="my-svg_flowchart-v2-circleEnd" class="marker flowchart-v2" viewBox="0 0 10 10" refX="11" refY="5" markerUnits="userSpaceOnUse" markerWidth="11" markerHeight="11" orient="auto"><circle cx="5" cy="5" r="5" class="arrowMarkerPath" style="stroke-width: 1; stroke-dasharray: 1, 0;"/></marker><marker id="my-svg_flowchart-v2-circleStart" class="marker flowchart-v2" viewBox="0 0 10 10" refX="-1" refY="5" markerUnits="userSpaceOnUse" markerWidth="11" markerHeight="11" orient="auto"><circle cx="5" cy="5" r="5" class="arrowMarkerPath" style="stroke-width: 1; stroke-dasharray: 1, 0;"/></marker><marker id="my-svg_flowchart-v2-circleEnd-margin" class="marker flowchart-v2" viewBox="0 0 10 10" refY="5" refX="12.25" markerUnits="userSpaceOnUse" markerWidth="14" markerHeight="14" orient="auto"><circle cx="5" cy="5" r="5" class="arrowMarkerPath" style="stroke-width: 0; stroke-dasharray: 1, 0;"/></marker><marker id="my-svg_flowchart-v2-circleStart-margin" class="marker flowchart-v2" viewBox="0 0 10 10" refX="-2" refY="5" markerUnits="userSpaceOnUse" markerWidth="14" markerHeight="14" orient="auto"><circle cx="5" cy="5" r="5" class="arrowMarkerPath" style="stroke-width: 0; stroke-dasharray: 1, 0;"/></marker><marker id="my-svg_flowchart-v2-crossEnd" class="marker cross flowchart-v2" viewBox="0 0 11 11" refX="12" refY="5.2" markerUnits="userSpaceOnUse" markerWidth="11" markerHeight="11" orient="auto"><path d="M 1,1 l 9,9 M 10,1 l -9,9" class="arrowMarkerPath" style="stroke-width: 2; stroke-dasharray: 1, 0;"/></marker><marker id="my-svg_flowchart-v2-crossStart" class="marker cross flowchart-v2" viewBox="0 0 11 11" refX="-1" refY="5.2" markerUnits="userSpaceOnUse" markerWidth="11" markerHeight="11" orient="auto"><path d="M 1,1 l 9,9 M 10,1 l -9,9" class="arrowMarkerPath" style="stroke-width: 2; stroke-dasharray: 1, 0;"/></marker><marker id="my-svg_flowchart-v2-crossEnd-margin" class="marker cross flowchart-v2" viewBox="0 0 15 15" refX="17.7" refY="7.5" markerUnits="userSpaceOnUse" markerWidth="12" markerHeight="12" orient="auto"><path d="M 1,1 L 14,14 M 1,14 L 14,1" class="arrowMarkerPath" style="stroke-width: 2.5;"/></marker><marker id="my-svg_flowchart-v2-crossStart-margin" class="marker cross flowchart-v2" viewBox="0 0 15 15" refX="-3.5" refY="7.5" markerUnits="userSpaceOnUse" markerWidth="12" markerHeight="12" orient="auto"><path d="M 1,1 L 14,14 M 1,14 L 14,1" class="arrowMarkerPath" style="stroke-width: 2.5; stroke-dasharray: 1, 0;"/></marker><g class="root"><g class="clusters"/><g class="edgePaths"><path d="M100.844,1321.325L100.844,1327.367C100.844,1333.408,100.844,1345.492,100.844,1356.908C100.844,1368.325,100.844,1379.075,100.844,1384.45L100.844,1389.825" id="my-svg-L_DB_NE_0" class="edge-thickness-normal edge-pattern-dotted edge-thickness-normal edge-pattern-solid flowchart-link" style=";" data-edge="true" data-et="edge" data-id="L_DB_NE_0" data-points="W3sieCI6MTAwLjg0Mzc1LCJ5IjoxMzIxLjMyNDk3NDA2MDA1ODZ9LHsieCI6MTAwLjg0Mzc1LCJ5IjoxMzU3LjU3NDk3NDA2MDA1ODZ9LHsieCI6MTAwLjg0Mzc1LCJ5IjoxMzkzLjgyNDk3NDA2MDA1ODZ9XQ==" data-look="classic" marker-end="url(#my-svg_flowchart-v2-pointEnd)"/><path d="M604.555,44.5L604.555,50.542C604.555,56.583,604.555,68.667,604.555,80.083C604.555,91.5,604.555,102.25,604.555,107.625L604.555,113" id="my-svg-L_User_FE_0" class="edge-thickness-normal edge-pattern-solid edge-thickness-normal edge-pattern-solid flowchart-link" style=";" data-edge="true" data-et="edge" data-id="L_User_FE_0" data-points="W3sieCI6NjA0LjU1NDY4NzUsInkiOjQ0LjV9LHsieCI6NjA0LjU1NDY4NzUsInkiOjgwLjc1fSx7IngiOjYwNC41NTQ2ODc1LCJ5IjoxMTd9XQ==" data-look="classic" marker-end="url(#my-svg_flowchart-v2-pointEnd)"/><path d="M767.555,560.095L780.332,575.662C793.109,591.23,818.664,622.365,831.441,677.974C844.219,733.583,844.219,813.667,844.219,853.708L844.219,893.75" id="my-svg-L_FE_CF_0" class="edge-thickness-normal edge-pattern-dotted edge-thickness-normal edge-pattern-solid flowchart-link" style=";" data-edge="true" data-et="edge" data-id="L_FE_CF_0" data-points="W3sieCI6NzY3LjU1NDY4NzUsInkiOjU2MC4wOTQ2NDc0NTU3NDg2fSx7IngiOjg0NC4yMTg3NSwieSI6NjUzLjV9LHsieCI6ODQ0LjIxODc1LCJ5Ijo4OTcuNzV9XQ==" data-look="classic" marker-end="url(#my-svg_flowchart-v2-pointEnd)"/><path d="M137.907,1145L131.73,1151.042C125.553,1157.083,113.198,1169.167,107.021,1180.583C100.844,1192,100.844,1202.75,100.844,1208.125L100.844,1213.5" id="my-svg-L_Data_DB_0" class="edge-thickness-normal edge-pattern-solid edge-thickness-normal edge-pattern-solid flowchart-link" style=";" data-edge="true" data-et="edge" data-id="L_Data_DB_0" data-points="W3sieCI6MTM3LjkwNzQ0NDk0MTkxNjc0LCJ5IjoxMTQ1fSx7IngiOjEwMC44NDM3NSwieSI6MTE4MS4yNX0seyJ4IjoxMDAuODQzNzUsInkiOjEyMTcuNX1d" data-look="classic" marker-end="url(#my-svg_flowchart-v2-pointEnd)"/><path d="M364.891,1145L364.891,1151.042C364.891,1157.083,364.891,1169.167,364.891,1184.319C364.891,1199.471,364.891,1217.692,364.891,1226.802L364.891,1235.912" id="my-svg-L_Svc_LLM_0" class="edge-thickness-normal edge-pattern-solid edge-thickness-normal edge-pattern-solid flowchart-link" style=";" data-edge="true" data-et="edge" data-id="L_Svc_LLM_0" data-points="W3sieCI6MzY0Ljg5MDYyNSwieSI6MTE0NX0seyJ4IjozNjQuODkwNjI1LCJ5IjoxMTgxLjI1fSx7IngiOjM2NC44OTA2MjUsInkiOjEyMzkuOTEyNDg3MDMwMDI5M31d" data-look="classic" marker-end="url(#my-svg_flowchart-v2-pointEnd)"/><path d="M441.555,560.095L428.777,575.662C416,591.23,390.445,622.365,377.668,645.182C364.891,668,364.891,682.5,364.891,689.75L364.891,697" id="my-svg-L_FE_BE_0" class="edge-thickness-normal edge-pattern-solid edge-thickness-normal edge-pattern-solid flowchart-link" style=";" data-edge="true" data-et="edge" data-id="L_FE_BE_0" data-points="W3sieCI6NDQxLjU1NDY4NzUsInkiOjU2MC4wOTQ2NDc0NTU3NDg2fSx7IngiOjM2NC44OTA2MjUsInkiOjY1My41fSx7IngiOjM2NC44OTA2MjUsInkiOjcwMX1d" data-look="classic" marker-end="url(#my-svg_flowchart-v2-pointEnd)"/><path d="M622.095,1145L629.095,1151.042C636.095,1157.083,650.094,1169.167,657.094,1183.152C664.094,1197.137,664.094,1213.025,664.094,1220.969L664.094,1228.912" id="my-svg-L_BE_HF_0" class="edge-thickness-normal edge-pattern-dotted edge-thickness-normal edge-pattern-solid flowchart-link" style=";" data-edge="true" data-et="edge" data-id="L_BE_HF_0" data-points="W3sieCI6NjIyLjA5NTI0NzQ1ODg1NzcsInkiOjExNDV9LHsieCI6NjY0LjA5Mzc1LCJ5IjoxMTgxLjI1fSx7IngiOjY2NC4wOTM3NSwieSI6MTIzMi45MTI0ODcwMzAwMjkzfV0=" data-look="classic" marker-end="url(#my-svg_flowchart-v2-pointEnd)"/></g><g class="edgeLabels"><g class="edgeLabel" transform="translate(100.84375, 1357.5749740600586)"><g class="label" data-id="L_DB_NE_0" transform="translate(-22.59375, -11.25)"><foreignObject width="45.1875" height="22.5"><div xmlns="http://www.w3.org/1999/xhtml" class="labelBkg" style="display: table-cell; white-space: nowrap; line-height: 1.5; max-width: 200px; text-align: center;"><span class="edgeLabel"><p>deploy</p></span></div></foreignObject></g></g><g class="edgeLabel" transform="translate(604.5546875, 80.75)"><g class="label" data-id="L_User_FE_0" transform="translate(-43.5234375, -11.25)"><foreignObject width="87.046875" height="22.5"><div xmlns="http://www.w3.org/1999/xhtml" class="labelBkg" style="display: table-cell; white-space: nowrap; line-height: 1.5; max-width: 200px; text-align: center;"><span class="edgeLabel"><p>HTTPS / WSS</p></span></div></foreignObject></g></g><g class="edgeLabel" transform="translate(844.21875, 653.5)"><g class="label" data-id="L_FE_CF_0" transform="translate(-22.59375, -11.25)"><foreignObject width="45.1875" height="22.5"><div xmlns="http://www.w3.org/1999/xhtml" class="labelBkg" style="display: table-cell; white-space: nowrap; line-height: 1.5; max-width: 200px; text-align: center;"><span class="edgeLabel"><p>deploy</p></span></div></foreignObject></g></g><g class="edgeLabel"><g class="label" data-id="L_Data_DB_0" transform="translate(0, 0)"><foreignObject width="0" height="0"><div xmlns="http://www.w3.org/1999/xhtml" class="labelBkg" style="display: table-cell; white-space: nowrap; line-height: 1.5; max-width: 200px; text-align: center;"><span class="edgeLabel"></span></div></foreignObject></g></g><g class="edgeLabel" transform="translate(364.890625, 1181.25)"><g class="label" data-id="L_Svc_LLM_0" transform="translate(-21.515625, -11.25)"><foreignObject width="43.03125" height="22.5"><div xmlns="http://www.w3.org/1999/xhtml" class="labelBkg" style="display: table-cell; white-space: nowrap; line-height: 1.5; max-width: 200px; text-align: center;"><span class="edgeLabel"><p>HTTPS</p></span></div></foreignObject></g></g><g class="edgeLabel" transform="translate(388.15484, 625.15552)"><g class="label" data-id="L_FE_BE_0" transform="translate(-100, -22.5)"><foreignObject width="200" height="45"><div xmlns="http://www.w3.org/1999/xhtml" class="labelBkg" style="display: table; white-space: break-spaces; line-height: 1.5; max-width: 200px; text-align: center; width: 200px;"><span class="edgeLabel"><p>REST JSON + multipart, JWT Bearer</p></span></div></foreignObject></g></g><g class="edgeLabel" transform="translate(662.64911, 1180.0031)"><g class="label" data-id="L_BE_HF_0" transform="translate(-22.59375, -11.25)"><foreignObject width="45.1875" height="22.5"><div xmlns="http://www.w3.org/1999/xhtml" class="labelBkg" style="display: table-cell; white-space: nowrap; line-height: 1.5; max-width: 200px; text-align: center;"><span class="edgeLabel"><p>deploy</p></span></div></foreignObject></g></g></g><g class="nodes"><g class="root" transform="translate(40.890625, 693)"><g class="clusters"><g class="cluster" id="my-svg-BE" data-look="classic"><rect style="" x="8" y="8" width="632" height="444"/><g class="cluster-label" transform="translate(228.296875, 8)"><foreignObject width="191.40625" height="22.5"><div xmlns="http://www.w3.org/1999/xhtml" style="display: table-cell; white-space: nowrap; line-height: 1.5;"><span class="nodeLabel"><p>BACKEND - FastAPI monolith</p></span></div></foreignObject></g></g></g><g class="edgePaths"><path d="M324,118.5L324,124.75C324,131,324,143.5,324,155.333C324,167.167,324,178.333,324,183.917L324,189.5" id="my-svg-L_HTTP_Svc_0" class="edge-thickness-normal edge-pattern-solid edge-thickness-normal edge-pattern-solid flowchart-link" style=";" data-edge="true" data-et="edge" data-id="L_HTTP_Svc_0" data-points="W3sieCI6MzI0LCJ5IjoxMTguNX0seyJ4IjozMjQsInkiOjE1Nn0seyJ4IjozMjQsInkiOjE5My41fV0=" data-look="classic" marker-end="url(#my-svg_flowchart-v2-pointEnd)"/><path d="M248.534,266.5L235.611,272.75C222.689,279,196.845,291.5,183.922,303.333C171,315.167,171,326.333,171,331.917L171,337.5" id="my-svg-L_Svc_Data_0" class="edge-thickness-normal edge-pattern-solid edge-thickness-normal edge-pattern-solid flowchart-link" style=";" data-edge="true" data-et="edge" data-id="L_Svc_Data_0" data-points="W3sieCI6MjQ4LjUzMzc4Mzc4Mzc4MzgsInkiOjI2Ni41fSx7IngiOjE3MSwieSI6MzA0fSx7IngiOjE3MSwieSI6MzQxLjV9XQ==" data-look="classic" marker-end="url(#my-svg_flowchart-v2-pointEnd)"/><path d="M399.466,266.5L412.389,272.75C425.311,279,451.155,291.5,464.078,303.333C477,315.167,477,326.333,477,331.917L477,337.5" id="my-svg-L_Svc_Sched_0" class="edge-thickness-normal edge-pattern-dotted edge-thickness-normal edge-pattern-solid flowchart-link" style=";" data-edge="true" data-et="edge" data-id="L_Svc_Sched_0" data-points="W3sieCI6Mzk5LjQ2NjIxNjIxNjIxNjIsInkiOjI2Ni41fSx7IngiOjQ3NywieSI6MzA0fSx7IngiOjQ3NywieSI6MzQxLjV9XQ==" data-look="classic" marker-end="url(#my-svg_flowchart-v2-pointEnd)"/></g><g class="edgeLabels"><g class="edgeLabel"><g class="label" data-id="L_HTTP_Svc_0" transform="translate(0, 0)"><foreignObject width="0" height="0"><div xmlns="http://www.w3.org/1999/xhtml" class="labelBkg" style="display: table-cell; white-space: nowrap; line-height: 1.5; max-width: 200px; text-align: center;"><span class="edgeLabel"></span></div></foreignObject></g></g><g class="edgeLabel"><g class="label" data-id="L_Svc_Data_0" transform="translate(0, 0)"><foreignObject width="0" height="0"><div xmlns="http://www.w3.org/1999/xhtml" class="labelBkg" style="display: table-cell; white-space: nowrap; line-height: 1.5; max-width: 200px; text-align: center;"><span class="edgeLabel"></span></div></foreignObject></g></g><g class="edgeLabel"><g class="label" data-id="L_Svc_Sched_0" transform="translate(0, 0)"><foreignObject width="0" height="0"><div xmlns="http://www.w3.org/1999/xhtml" class="labelBkg" style="display: table-cell; white-space: nowrap; line-height: 1.5; max-width: 200px; text-align: center;"><span class="edgeLabel"></span></div></foreignObject></g></g></g><g class="nodes"><g class="node default" id="my-svg-flowchart-HTTP-7" data-look="classic" transform="translate(324, 82)"><rect class="basic label-container" style="" x="-106.75" y="-36.5" width="213.5" height="73"/><g class="label" style="" transform="translate(-78.75, -22.5)"><rect/><foreignObject width="157.5" height="45"><div xmlns="http://www.w3.org/1999/xhtml" style="display: table-cell; white-space: nowrap; line-height: 1.5; max-width: 200px; text-align: center;"><span class="nodeLabel"><p>Tầng HTTP (main.py)<br />63 REST + 1 WebSocket</p></span></div></foreignObject></g></g><g class="node default" id="my-svg-flowchart-Svc-8" data-look="classic" transform="translate(324, 230)"><rect class="basic label-container" style="" x="-128" y="-36.5" width="256" height="73"/><g class="label" style="" transform="translate(-100, -22.5)"><rect/><foreignObject width="200" height="45"><div xmlns="http://www.w3.org/1999/xhtml" style="display: table; white-space: break-spaces; line-height: 1.5; max-width: 200px; text-align: center; width: 200px;"><span class="nodeLabel"><p>Tầng service (advanced, pipeline)</p></span></div></foreignObject></g></g><g class="node default" id="my-svg-flowchart-Data-9" data-look="classic" transform="translate(171, 378)"><rect class="basic label-container" style="" x="-128" y="-36.5" width="256" height="73"/><g class="label" style="" transform="translate(-100, -22.5)"><rect/><foreignObject width="200" height="45"><div xmlns="http://www.w3.org/1999/xhtml" style="display: table; white-space: break-spaces; line-height: 1.5; max-width: 200px; text-align: center; width: 200px;"><span class="nodeLabel"><p>Tầng dữ liệu (SQLAlchemy 2.0)</p></span></div></foreignObject></g></g><g class="node default" id="my-svg-flowchart-Sched-10" data-look="classic" transform="translate(477, 378)"><rect class="basic label-container" style="" x="-128" y="-36.5" width="256" height="73"/><g class="label" style="" transform="translate(-100, -22.5)"><rect/><foreignObject width="200" height="45"><div xmlns="http://www.w3.org/1999/xhtml" style="display: table; white-space: break-spaces; line-height: 1.5; max-width: 200px; text-align: center; width: 200px;"><span class="nodeLabel"><p>Scheduler (APScheduler, in-process)</p></span></div></foreignObject></g></g></g></g><g class="root" transform="translate(433.5546875, 109)"><g class="clusters"><g class="cluster" id="my-svg-FE" data-look="classic"><rect style="" x="8" y="8" width="326" height="489"/><g class="cluster-label" transform="translate(69.53125, 8)"><foreignObject width="202.9375" height="22.5"><div xmlns="http://www.w3.org/1999/xhtml" style="display: table-cell; white-space: nowrap; line-height: 1.5;"><span class="nodeLabel"><p>FRONTEND - React 19 + Vite 7</p></span></div></foreignObject></g></g></g><g class="edgePaths"><path d="M171,118.5L171,124.75C171,131,171,143.5,171,155.333C171,167.167,171,178.333,171,183.917L171,189.5" id="my-svg-L_Router_Axios_0" class="edge-thickness-normal edge-pattern-solid edge-thickness-normal edge-pattern-solid flowchart-link" style=";" data-edge="true" data-et="edge" data-id="L_Router_Axios_0" data-points="W3sieCI6MTcxLCJ5IjoxMTguNX0seyJ4IjoxNzEsInkiOjE1Nn0seyJ4IjoxNzEsInkiOjE5My41fV0=" data-look="classic" marker-end="url(#my-svg_flowchart-v2-pointEnd)"/><path d="M171,266.5L171,272.75C171,279,171,291.5,171,303.333C171,315.167,171,326.333,171,331.917L171,337.5" id="my-svg-L_Axios_Services_0" class="edge-thickness-normal edge-pattern-solid edge-thickness-normal edge-pattern-solid flowchart-link" style=";" data-edge="true" data-et="edge" data-id="L_Axios_Services_0" data-points="W3sieCI6MTcxLCJ5IjoyNjYuNX0seyJ4IjoxNzEsInkiOjMwNH0seyJ4IjoxNzEsInkiOjM0MS41fV0=" data-look="classic" marker-end="url(#my-svg_flowchart-v2-pointEnd)"/></g><g class="edgeLabels"><g class="edgeLabel"><g class="label" data-id="L_Router_Axios_0" transform="translate(0, 0)"><foreignObject width="0" height="0"><div xmlns="http://www.w3.org/1999/xhtml" class="labelBkg" style="display: table-cell; white-space: nowrap; line-height: 1.5; max-width: 200px; text-align: center;"><span class="edgeLabel"></span></div></foreignObject></g></g><g class="edgeLabel"><g class="label" data-id="L_Axios_Services_0" transform="translate(0, 0)"><foreignObject width="0" height="0"><div xmlns="http://www.w3.org/1999/xhtml" class="labelBkg" style="display: table-cell; white-space: nowrap; line-height: 1.5; max-width: 200px; text-align: center;"><span class="edgeLabel"></span></div></foreignObject></g></g></g><g class="nodes"><g class="node default" id="my-svg-flowchart-Router-1" data-look="classic" transform="translate(171, 82)"><rect class="basic label-container" style="" x="-128" y="-36.5" width="256" height="73"/><g class="label" style="" transform="translate(-100, -22.5)"><rect/><foreignObject width="200" height="45"><div xmlns="http://www.w3.org/1999/xhtml" style="display: table; white-space: break-spaces; line-height: 1.5; max-width: 200px; text-align: center; width: 200px;"><span class="nodeLabel"><p>React Router v7 (SPA, lazy-load)</p></span></div></foreignObject></g></g><g class="node default" id="my-svg-flowchart-Axios-2" data-look="classic" transform="translate(171, 230)"><rect class="basic label-container" style="" x="-106.171875" y="-36.5" width="212.34375" height="73"/><g class="label" style="" transform="translate(-78.171875, -22.5)"><rect/><foreignObject width="156.34375" height="45"><div xmlns="http://www.w3.org/1999/xhtml" style="display: table-cell; white-space: nowrap; line-height: 1.5; max-width: 200px; text-align: center;"><span class="nodeLabel"><p>axios + interceptor JWT<br />tự logout khi 401</p></span></div></foreignObject></g></g><g class="node default" id="my-svg-flowchart-Services-3" data-look="classic" transform="translate(171, 400.5)"><rect class="basic label-container" style="" x="-128" y="-59" width="256" height="118"/><g class="label" style="" transform="translate(-100, -45)"><rect/><foreignObject width="200" height="90"><div xmlns="http://www.w3.org/1999/xhtml" style="display: table; white-space: break-spaces; line-height: 1.5; max-width: 200px; text-align: center; width: 200px;"><span class="nodeLabel"><p>Tầng service theo domain<br />auth / tarot / daily / community / duo / history / visions</p></span></div></foreignObject></g></g></g></g><g class="node default" id="my-svg-flowchart-User-0" data-look="classic" transform="translate(604.5546875, 26.25)"><g class="basic label-container outer-path"><path d="M-77.453125 -18.25 C-42.864956040112475 -18.25, -8.276787080224949 -18.25, 77.453125 -18.25 C77.453125 -18.25, 77.453125 -18.25, 77.453125 -18.25 C77.73601527073328 -18.240928259630092, 78.01890554146657 -18.231856519260184, 78.622406514648 -18.21250341769364 C78.9243146952765 -18.18337869860612, 79.22622287590497 -18.1542539795186, 79.78688320074224 -18.100167752274242 C80.09534065074392 -18.05029874388122, 80.40379810074559 -18.0004297354882, 80.94176997380004 -17.913454615086945 C81.2906074716523 -17.83383473257958, 81.63944496950455 -17.754214850072213, 82.08232115634851 -17.653131250462287 C82.40502765730248 -17.55735365490014, 82.72773415825644 -17.461576059337993, 83.20384997893107 -17.320267382944703 C83.54086374405901 -17.19624320205653, 83.87787750918694 -17.072219021168355, 84.30174783904857 -16.9162308215649 C84.55755796737694 -16.802991266091773, 84.8133680957053 -16.689751710618648, 85.37150323889543 -16.442681839219148 C85.62703825787545 -16.309369383495262, 85.88257327685548 -16.176056927771373, 86.40872032407187 -15.901566350251858 C86.75516276400771 -15.691550907240988, 87.10160520394355 -15.481535464230117, 87.4091369470925 -15.295107914276093 C87.6070464290508 -15.157054827025387, 87.80495591100907 -15.019001739774682, 88.3686421814647 -14.625798599090208 C88.71438471255694 -14.350078131139298, 89.06012724364918 -14.074357663188389, 89.28329321436713 -13.896388740236706 C89.60824521589619 -13.601275930206837, 89.93319721742525 -13.30616312017697, 90.14933154851363 -13.109875639283528 C90.37897967048653 -12.872745098885044, 90.60862779245944 -12.635614558486562, 90.9631984466245 -12.269491247269036 C91.26583886132593 -11.913992595433308, 91.56847927602735 -11.55849394359758, 91.72154955504155 -11.378688883921889 C91.87834843685934 -11.168592666958048, 92.03514731867712 -10.958496449994207, 92.42126864639444 -10.4411290472296 C92.55762662574737 -10.231646573699132, 92.69398460510031 -10.022164100168665, 93.05948042484756 -9.460664371667084 C93.19166817570336 -9.22595163456138, 93.32385592655915 -8.991238897455675, 93.63356234130725 -8.441323796895244 C93.76212246750516 -8.17436594409925, 93.89068259370306 -7.907408091303255, 94.14115537003858 -7.3872960119836915 C94.24050096502633 -7.141910471647519, 94.3398465600141 -6.896524931311346, 94.58017370240813 -6.302912243188873 C94.70566365570643 -5.924956497963207, 94.83115360900472 -5.54700075273754, 94.94881331791905 -5.192628456016347 C95.03663493842679 -4.85772655488924, 95.12445655893454 -4.522824653762132, 95.24555939731829 -4.061007044702739 C95.2932569331267 -3.81609027920427, 95.34095446893512 -3.571173513705801, 95.46919254731371 -2.9126980843591777 C95.51271709126739 -2.5751303163477943, 95.55624163522107 -2.2375625483364114, 95.61879381132286 -1.7524202228151955 C95.63804959819086 -1.4524957993545873, 95.65730538505888 -1.152571375893979, 95.69374844566255 -0.5849412906827067 C95.69374844566255 -0.29869683156647303, 95.69374844566255 -0.012452372450239335, 95.69374844566255 0.5849412906827023 C95.66705879325414 1.0006541704433396, 95.64036914084573 1.416367050203977, 95.61879381132286 1.752420222815183 C95.56183634167405 2.1941711098867756, 95.50487887202524 2.635921996958368, 95.46919254731371 2.9126980843591648 C95.40344186137588 3.250313960237541, 95.33769117543805 3.5879298361159173, 95.24555939731829 4.061007044702736 C95.15748786590643 4.396861964419285, 95.06941633449459 4.732716884135835, 94.94881331791906 5.192628456016335 C94.81057349400483 5.608984780121197, 94.6723336700906 6.02534110422606, 94.58017370240813 6.302912243188861 C94.45195592854506 6.619612623552645, 94.323738154682 6.936313003916429, 94.14115537003858 7.387296011983686 C93.98236352483747 7.7170306761450025, 93.82357167963634 8.046765340306319, 93.63356234130725 8.44132379689524 C93.48540352021553 8.704394786451061, 93.33724469912381 8.967465776006883, 93.05948042484756 9.46066437166708 C92.91058080268421 9.689414176456994, 92.76168118052085 9.918163981246906, 92.42126864639445 10.441129047229591 C92.23862148866438 10.685859599089516, 92.0559743309343 10.93059015094944, 91.72154955504155 11.378688883921884 C91.54439523471864 11.586784428939566, 91.36724091439572 11.794879973957247, 90.96319844662452 12.269491247269025 C90.77465376366658 12.464179112229457, 90.58610908070862 12.658866977189891, 90.14933154851363 13.109875639283525 C89.88448056267401 13.35040629704998, 89.6196295768344 13.590936954816435, 89.28329321436715 13.896388740236693 C89.01345044236965 14.111581170086959, 88.74360767037216 14.326773599937225, 88.3686421814647 14.625798599090206 C88.0134376023458 14.873573936925137, 87.65823302322693 15.12134927476007, 87.40913694709252 15.295107914276088 C87.16124640275011 15.445380619022991, 86.91335585840771 15.595653323769893, 86.40872032407187 15.901566350251857 C86.16093807925317 16.030834188661665, 85.91315583443449 16.16010202707147, 85.37150323889544 16.442681839219148 C85.0588753224606 16.58107294404721, 84.74624740602574 16.719464048875277, 84.30174783904859 16.916230821564895 C83.93427316344507 17.05146489908565, 83.56679848784157 17.186698976606408, 83.20384997893109 17.3202673829447 C82.87863749725665 17.416788740430523, 82.55342501558222 17.513310097916342, 82.08232115634853 17.653131250462284 C81.7706236723866 17.72427416716042, 81.4589261884247 17.795417083858556, 80.94176997380005 17.91345461508694 C80.52923980597805 17.98014929340117, 80.11670963815605 18.0468439717154, 79.78688320074224 18.100167752274242 C79.39774513536189 18.13770743343449, 79.00860706998154 18.175247114594736, 78.622406514648 18.21250341769364 C78.20833209872195 18.22578197826543, 77.7942576827959 18.239060538837222, 77.453125 18.25 C77.453125 18.25, 77.453125 18.25, 77.453125 18.25 C25.17834542461582 18.25, -27.09643415076836 18.25, -77.453125 18.25 C-77.78000540259352 18.239517581722932, -78.10688580518703 18.229035163445864, -78.622406514648 18.21250341769364 C-78.95994641925256 18.179941349047567, -79.29748632385711 18.14737928040149, -79.78688320074224 18.100167752274242 C-80.17167326810022 18.037957878275343, -80.55646333545822 17.975748004276443, -80.94176997380005 17.91345461508694 C-81.30710384818055 17.83006954228592, -81.67243772256106 17.7466844694849, -82.0823211563485 17.653131250462287 C-82.4211121735796 17.552579854898436, -82.75990319081072 17.45202845933458, -83.20384997893106 17.320267382944706 C-83.5282508128555 17.200884877332076, -83.85265164677995 17.081502371719445, -84.30174783904857 16.9162308215649 C-84.52618947285913 16.816877168101477, -84.75063110666969 16.71752351463806, -85.37150323889543 16.44268183921915 C-85.70480753008317 16.26879720399809, -86.03811182127093 16.09491256877703, -86.40872032407185 15.90156635025186 C-86.69609797939819 15.727356326774478, -86.98347563472453 15.553146303297094, -87.4091369470925 15.2951079142761 C-87.71499945866644 15.081751466776847, -88.02086197024038 14.868395019277594, -88.3686421814647 14.62579859909021 C-88.59041455517308 14.44894103266849, -88.81218692888146 14.27208346624677, -89.28329321436713 13.896388740236707 C-89.62520519480121 13.585873326101742, -89.9671171752353 13.275357911966777, -90.14933154851362 13.109875639283537 C-90.37759541522473 12.874174456092325, -90.60585928193585 12.638473272901111, -90.96319844662452 12.26949124726903 C-91.19318122057275 11.999340394598864, -91.423163994521 11.7291895419287, -91.72154955504155 11.37868888392189 C-91.9254623726766 11.105464285130767, -92.12937519031165 10.832239686339642, -92.42126864639444 10.441129047229602 C-92.55336642012726 10.238191393557031, -92.68546419386007 10.03525373988446, -93.05948042484756 9.460664371667093 C-93.22434444954115 9.167931601530872, -93.38920847423472 8.875198831394654, -93.63356234130725 8.441323796895245 C-93.75563368569773 8.187840038360083, -93.8777050300882 7.93435627982492, -94.14115537003858 7.387296011983693 C-94.2960593926474 7.004680081274381, -94.45096341525621 6.622064150565067, -94.58017370240813 6.302912243188875 C-94.7142500290485 5.899095709509679, -94.84832635568887 5.495279175830483, -94.94881331791905 5.192628456016342 C-95.0441351950309 4.82912482582595, -95.13945707214276 4.465621195635559, -95.24555939731827 4.061007044702742 C-95.33419087014522 3.6059031640048076, -95.42282234297217 3.1507992833068736, -95.46919254731371 2.91269808435918 C-95.51879540776159 2.527988093918096, -95.56839826820948 2.1432781034770123, -95.61879381132286 1.7524202228152057 C-95.63942007810402 1.4311494684757249, -95.66004634488519 1.109878714136244, -95.69374844566255 0.5849412906827091 C-95.69374844566255 0.26701456912036337, -95.69374844566255 -0.05091215244198233, -95.69374844566255 -0.5849412906827002 C-95.67237631596774 -0.917829461951974, -95.65100418627293 -1.2507176332212477, -95.61879381132286 -1.7524202228151808 C-95.58705671487866 -1.9985668756379207, -95.55531961843444 -2.24471352846066, -95.46919254731371 -2.912698084359171 C-95.40727706867995 -3.230620981302508, -95.34536159004618 -3.5485438782458454, -95.24555939731829 -4.061007044702734 C-95.14464091149512 -4.445852969494928, -95.04372242567193 -4.8306988942871225, -94.94881331791906 -5.192628456016333 C-94.85600136186993 -5.472163280059318, -94.7631894058208 -5.751698104102302, -94.58017370240813 -6.302912243188851 C-94.40648894226256 -6.731916958714824, -94.23280418211698 -7.160921674240797, -94.14115537003858 -7.387296011983684 C-93.97883387877317 -7.724360061719834, -93.81651238750776 -8.061424111455983, -93.63356234130725 -8.441323796895237 C-93.47895933415633 -8.715837091343776, -93.3243563270054 -8.990350385792315, -93.05948042484756 -9.460664371667086 C-92.90348792457883 -9.700310741931336, -92.74749542431007 -9.939957112195586, -92.42126864639445 -10.441129047229596 C-92.22270225859295 -10.707189917113542, -92.02413587079144 -10.973250786997488, -91.72154955504155 -11.378688883921884 C-91.53732446769378 -11.59509015422501, -91.35309938034601 -11.811491424528135, -90.96319844662452 -12.269491247269025 C-90.77397025458137 -12.464884891477073, -90.58474206253821 -12.66027853568512, -90.14933154851363 -13.10987563928352 C-89.84742316407706 -13.384060845970701, -89.54551477964047 -13.658246052657883, -89.28329321436715 -13.896388740236691 C-89.09970423072522 -14.042796069183094, -88.9161152470833 -14.189203398129498, -88.3686421814647 -14.625798599090205 C-88.02601184212334 -14.864802691586402, -87.68338150278197 -15.103806784082597, -87.40913694709252 -15.295107914276086 C-87.05806035039826 -15.50793261034723, -86.70698375370402 -15.720757306418376, -86.40872032407187 -15.901566350251855 C-86.11817572541008 -16.05314328127101, -85.8276311267483 -16.204720212290162, -85.37150323889544 -16.442681839219148 C-85.10354196893267 -16.561300344643016, -84.83558069896989 -16.679918850066883, -84.30174783904859 -16.91623082156489 C-83.98967548987972 -17.03107633082421, -83.67760314071083 -17.14592184008353, -83.20384997893109 -17.3202673829447 C-82.76693547883939 -17.449941313160906, -82.33002097874768 -17.579615243377113, -82.08232115634853 -17.65313125046228 C-81.78817499730718 -17.720268191780395, -81.49402883826583 -17.78740513309851, -80.94176997380005 -17.91345461508694 C-80.63413685928522 -17.963190351311265, -80.32650374477039 -18.01292608753559, -79.78688320074225 -18.100167752274242 C-79.42729553032552 -18.1348567423719, -79.06770785990878 -18.169545732469555, -78.622406514648 -18.21250341769364 C-78.21050266197753 -18.22571237252657, -77.79859880930704 -18.2389213273595, -77.453125 -18.25 C-77.453125 -18.25, -77.453125 -18.25, -77.453125 -18.25" stroke="none" stroke-width="0" fill="#f4f1fb" style=""/><path d="M-77.453125 -18.25 C-38.460790523855934 -18.25, 0.531543952288132 -18.25, 77.453125 -18.25 M-77.453125 -18.25 C-27.6377352916289 -18.25, 22.1776544167422 -18.25, 77.453125 -18.25 M77.453125 -18.25 C77.453125 -18.25, 77.453125 -18.25, 77.453125 -18.25 M77.453125 -18.25 C77.453125 -18.25, 77.453125 -18.25, 77.453125 -18.25 M77.453125 -18.25 C77.70473847918346 -18.241931245458513, 77.95635195836692 -18.233862490917026, 78.622406514648 -18.21250341769364 M77.453125 -18.25 C77.85644120665576 -18.237066434259923, 78.25975741331153 -18.224132868519845, 78.622406514648 -18.21250341769364 M78.622406514648 -18.21250341769364 C78.94838768103558 -18.18105640662194, 79.27436884742315 -18.149609395550243, 79.78688320074224 -18.100167752274242 M78.622406514648 -18.21250341769364 C79.0681633642017 -18.16950179051824, 79.51392021375537 -18.126500163342843, 79.78688320074224 -18.100167752274242 M79.78688320074224 -18.100167752274242 C80.0991329709249 -18.04968563096424, 80.41138274110757 -17.999203509654244, 80.94176997380004 -17.913454615086945 M79.78688320074224 -18.100167752274242 C80.17339891435626 -18.037678889171254, 80.55991462797026 -17.97519002606827, 80.94176997380004 -17.913454615086945 M80.94176997380004 -17.913454615086945 C81.247202734722 -17.843741580541543, 81.55263549564394 -17.77402854599614, 82.08232115634851 -17.653131250462287 M80.94176997380004 -17.913454615086945 C81.28994412857382 -17.833986136308525, 81.6381182833476 -17.7545176575301, 82.08232115634851 -17.653131250462287 M82.08232115634851 -17.653131250462287 C82.3425287739239 -17.57590299542357, 82.60273639149929 -17.49867474038485, 83.20384997893107 -17.320267382944703 M82.08232115634851 -17.653131250462287 C82.43118179663037 -17.5495912436335, 82.78004243691223 -17.446051236804713, 83.20384997893107 -17.320267382944703 M83.20384997893107 -17.320267382944703 C83.46752326513875 -17.22323317625114, 83.73119655134643 -17.126198969557574, 84.30174783904857 -16.9162308215649 M83.20384997893107 -17.320267382944703 C83.6290675519118 -17.163783385419638, 84.05428512489253 -17.007299387894573, 84.30174783904857 -16.9162308215649 M84.30174783904857 -16.9162308215649 C84.66103956278187 -16.757183033478476, 85.02033128651514 -16.59813524539205, 85.37150323889543 -16.442681839219148 M84.30174783904857 -16.9162308215649 C84.62271295945678 -16.774149083852198, 84.94367807986497 -16.6320673461395, 85.37150323889543 -16.442681839219148 M85.37150323889543 -16.442681839219148 C85.65704143565915 -16.29371674486346, 85.94257963242286 -16.144751650507775, 86.40872032407187 -15.901566350251858 M85.37150323889543 -16.442681839219148 C85.66841021852125 -16.287785658126356, 85.96531719814706 -16.132889477033565, 86.40872032407187 -15.901566350251858 M86.40872032407187 -15.901566350251858 C86.65019432788769 -15.755183390079948, 86.8916683317035 -15.608800429908035, 87.4091369470925 -15.295107914276093 M86.40872032407187 -15.901566350251858 C86.80812399237361 -15.659445499370852, 87.20752766067535 -15.417324648489846, 87.4091369470925 -15.295107914276093 M87.4091369470925 -15.295107914276093 C87.68200118278837 -15.104769635557043, 87.95486541848425 -14.914431356837994, 88.3686421814647 -14.625798599090208 M87.4091369470925 -15.295107914276093 C87.7512543721145 -15.056461608605385, 88.0933717971365 -14.817815302934676, 88.3686421814647 -14.625798599090208 M88.3686421814647 -14.625798599090208 C88.55474459355068 -14.477386877844811, 88.74084700563665 -14.328975156599414, 89.28329321436713 -13.896388740236706 M88.3686421814647 -14.625798599090208 C88.73320191318385 -14.335071914386068, 89.09776164490302 -14.044345229681928, 89.28329321436713 -13.896388740236706 M89.28329321436713 -13.896388740236706 C89.45697433672075 -13.738656140265837, 89.63065545907435 -13.58092354029497, 90.14933154851363 -13.109875639283528 M89.28329321436713 -13.896388740236706 C89.4613066965912 -13.734721605659452, 89.63932017881525 -13.5730544710822, 90.14933154851363 -13.109875639283528 M90.14933154851363 -13.109875639283528 C90.32887143271401 -12.924485968348009, 90.50841131691438 -12.739096297412491, 90.9631984466245 -12.269491247269036 M90.14933154851363 -13.109875639283528 C90.36681390527848 -12.885307250290268, 90.58429626204331 -12.660738861297006, 90.9631984466245 -12.269491247269036 M90.9631984466245 -12.269491247269036 C91.25834971501553 -11.922789772834001, 91.55350098340655 -11.576088298398966, 91.72154955504155 -11.378688883921889 M90.9631984466245 -12.269491247269036 C91.18906151117574 -12.004179639674705, 91.41492457572697 -11.738868032080372, 91.72154955504155 -11.378688883921889 M91.72154955504155 -11.378688883921889 C91.9165605583649 -11.117391905336468, 92.11157156168827 -10.856094926751048, 92.42126864639444 -10.4411290472296 M91.72154955504155 -11.378688883921889 C91.99814458753245 -11.008076738709919, 92.27473962002334 -10.637464593497949, 92.42126864639444 -10.4411290472296 M92.42126864639444 -10.4411290472296 C92.60910034134183 -10.152569123918063, 92.79693203628922 -9.864009200606528, 93.05948042484756 -9.460664371667084 M92.42126864639444 -10.4411290472296 C92.57175720642867 -10.209938207180452, 92.72224576646292 -9.978747367131303, 93.05948042484756 -9.460664371667084 M93.05948042484756 -9.460664371667084 C93.20063620233616 -9.21002799516368, 93.34179197982475 -8.959391618660277, 93.63356234130725 -8.441323796895244 M93.05948042484756 -9.460664371667084 C93.24421069093088 -9.132657078268304, 93.4289409570142 -8.804649784869524, 93.63356234130725 -8.441323796895244 M93.63356234130725 -8.441323796895244 C93.74727853490441 -8.205189687753975, 93.86099472850158 -7.969055578612707, 94.14115537003858 -7.3872960119836915 M93.63356234130725 -8.441323796895244 C93.81618495970429 -8.062104022295749, 93.9988075781013 -7.682884247696256, 94.14115537003858 -7.3872960119836915 M94.14115537003858 -7.3872960119836915 C94.2414862151558 -7.13947688477923, 94.34181706027302 -6.891657757574768, 94.58017370240813 -6.302912243188873 M94.14115537003858 -7.3872960119836915 C94.29715601676138 -7.001971398511062, 94.45315666348418 -6.616646785038432, 94.58017370240813 -6.302912243188873 M94.58017370240813 -6.302912243188873 C94.67424734167543 -6.019577430314708, 94.76832098094272 -5.736242617440545, 94.94881331791905 -5.192628456016347 M94.58017370240813 -6.302912243188873 C94.70560736219639 -5.925126045046293, 94.83104102198463 -5.5473398469037125, 94.94881331791905 -5.192628456016347 M94.94881331791905 -5.192628456016347 C95.02564664997308 -4.899629661117555, 95.10247998202712 -4.606630866218763, 95.24555939731829 -4.061007044702739 M94.94881331791905 -5.192628456016347 C95.01271036128765 -4.948961336498102, 95.07660740465626 -4.7052942169798575, 95.24555939731829 -4.061007044702739 M95.24555939731829 -4.061007044702739 C95.29708385850806 -3.796439826192005, 95.34860831969782 -3.531872607681271, 95.46919254731371 -2.9126980843591777 M95.24555939731829 -4.061007044702739 C95.32979265413044 -3.6284870736774213, 95.4140259109426 -3.1959671026521033, 95.46919254731371 -2.9126980843591777 M95.46919254731371 -2.9126980843591777 C95.51222282674357 -2.578963734391013, 95.55525310617341 -2.2452293844228484, 95.61879381132286 -1.7524202228151955 M95.46919254731371 -2.9126980843591777 C95.50065560605181 -2.6686768138701322, 95.53211866478992 -2.424655543381087, 95.61879381132286 -1.7524202228151955 M95.61879381132286 -1.7524202228151955 C95.64164536713037 -1.3964887956695542, 95.66449692293786 -1.040557368523913, 95.69374844566255 -0.5849412906827067 M95.61879381132286 -1.7524202228151955 C95.63971969806899 -1.4264826456725643, 95.66064558481511 -1.100545068529933, 95.69374844566255 -0.5849412906827067 M95.69374844566255 -0.5849412906827067 C95.69374844566255 -0.22682532329713406, 95.69374844566255 0.1312906440884386, 95.69374844566255 0.5849412906827023 M95.69374844566255 -0.5849412906827067 C95.69374844566255 -0.33599702142417154, 95.69374844566255 -0.0870527521656363, 95.69374844566255 0.5849412906827023 M95.69374844566255 0.5849412906827023 C95.66855120020716 0.9774087275007146, 95.64335395475179 1.369876164318727, 95.61879381132286 1.752420222815183 M95.69374844566255 0.5849412906827023 C95.672819373794 0.910928478678055, 95.65189030192546 1.2369156666734078, 95.61879381132286 1.752420222815183 M95.61879381132286 1.752420222815183 C95.57499350164845 2.0921267753004864, 95.53119319197404 2.4318333277857898, 95.46919254731371 2.9126980843591648 M95.61879381132286 1.752420222815183 C95.57255577434576 2.1110333068764033, 95.52631773736867 2.469646390937624, 95.46919254731371 2.9126980843591648 M95.46919254731371 2.9126980843591648 C95.39286433634442 3.3046273157134363, 95.31653612537511 3.6965565470677078, 95.24555939731829 4.061007044702736 M95.46919254731371 2.9126980843591648 C95.40081288020116 3.263813222934377, 95.3324332130886 3.614928361509589, 95.24555939731829 4.061007044702736 M95.24555939731829 4.061007044702736 C95.14736247551508 4.4354744663534635, 95.04916555371189 4.809941888004191, 94.94881331791906 5.192628456016335 M95.24555939731829 4.061007044702736 C95.14999881376738 4.4254209660012425, 95.05443823021648 4.78983488729975, 94.94881331791906 5.192628456016335 M94.94881331791906 5.192628456016335 C94.83515105482722 5.534961082826668, 94.72148879173538 5.877293709637001, 94.58017370240813 6.302912243188861 M94.94881331791906 5.192628456016335 C94.86937631063405 5.431880065390471, 94.78993930334904 5.671131674764608, 94.58017370240813 6.302912243188861 M94.58017370240813 6.302912243188861 C94.45267220253203 6.617843412956633, 94.32517070265592 6.932774582724405, 94.14115537003858 7.387296011983686 M94.58017370240813 6.302912243188861 C94.44940532003652 6.62591267588143, 94.31863693766489 6.948913108573999, 94.14115537003858 7.387296011983686 M94.14115537003858 7.387296011983686 C94.00597354039967 7.668003973656678, 93.87079171076076 7.948711935329668, 93.63356234130725 8.44132379689524 M94.14115537003858 7.387296011983686 C93.99432018189619 7.692202421931088, 93.8474849937538 7.9971088318784895, 93.63356234130725 8.44132379689524 M93.63356234130725 8.44132379689524 C93.41655768277771 8.826637542218908, 93.19955302424816 9.211951287542576, 93.05948042484756 9.46066437166708 M93.63356234130725 8.44132379689524 C93.43496305031155 8.793956948417001, 93.23636375931586 9.146590099938763, 93.05948042484756 9.46066437166708 M93.05948042484756 9.46066437166708 C92.90524556880793 9.697610528401869, 92.75101071276828 9.934556685136656, 92.42126864639445 10.441129047229591 M93.05948042484756 9.46066437166708 C92.9118443698222 9.687472998017746, 92.76420831479685 9.914281624368414, 92.42126864639445 10.441129047229591 M92.42126864639445 10.441129047229591 C92.19779890501599 10.740558142164472, 91.97432916363753 11.039987237099355, 91.72154955504155 11.378688883921884 M92.42126864639445 10.441129047229591 C92.21266105193186 10.720644219266655, 92.00405345746925 11.000159391303718, 91.72154955504155 11.378688883921884 M91.72154955504155 11.378688883921884 C91.55393816260275 11.575574762838912, 91.38632677016395 11.772460641755938, 90.96319844662452 12.269491247269025 M91.72154955504155 11.378688883921884 C91.46056391483268 11.68525746741485, 91.1995782746238 11.991826050907818, 90.96319844662452 12.269491247269025 M90.96319844662452 12.269491247269025 C90.78384637905171 12.454686982116543, 90.6044943114789 12.639882716964063, 90.14933154851363 13.109875639283525 M90.96319844662452 12.269491247269025 C90.6668042901364 12.575542548255807, 90.37041013364829 12.88159384924259, 90.14933154851363 13.109875639283525 M90.14933154851363 13.109875639283525 C89.81276305566632 13.41553823937311, 89.47619456281902 13.721200839462695, 89.28329321436715 13.896388740236693 M90.14933154851363 13.109875639283525 C89.92379535183497 13.31470164574632, 89.69825915515631 13.519527652209117, 89.28329321436715 13.896388740236693 M89.28329321436715 13.896388740236693 C88.99292918591414 14.12794632601666, 88.70256515746114 14.359503911796628, 88.3686421814647 14.625798599090206 M89.28329321436715 13.896388740236693 C89.09285644841157 14.048256993351098, 88.90241968245599 14.200125246465502, 88.3686421814647 14.625798599090206 M88.3686421814647 14.625798599090206 C88.06641504317389 14.836619167559922, 87.76418790488307 15.04743973602964, 87.40913694709252 15.295107914276088 M88.3686421814647 14.625798599090206 C87.99633871655706 14.885501379452526, 87.62403525164945 15.145204159814847, 87.40913694709252 15.295107914276088 M87.40913694709252 15.295107914276088 C87.1496754799407 15.452394980428352, 86.89021401278887 15.609682046580616, 86.40872032407187 15.901566350251857 M87.40913694709252 15.295107914276088 C87.20729604814213 15.417465053368602, 87.00545514919172 15.539822192461118, 86.40872032407187 15.901566350251857 M86.40872032407187 15.901566350251857 C86.08001164820605 16.073053455903093, 85.75130297234026 16.24454056155433, 85.37150323889544 16.442681839219148 M86.40872032407187 15.901566350251857 C86.08851009139914 16.06861982353277, 85.76829985872644 16.235673296813683, 85.37150323889544 16.442681839219148 M85.37150323889544 16.442681839219148 C85.0697947091558 16.57623925546934, 84.76808617941617 16.70979667171953, 84.30174783904859 16.916230821564895 M85.37150323889544 16.442681839219148 C84.96917702489232 16.620779719575232, 84.56685081088918 16.798877599931313, 84.30174783904859 16.916230821564895 M84.30174783904859 16.916230821564895 C83.99796995464476 17.028023891117485, 83.69419207024093 17.139816960670075, 83.20384997893109 17.3202673829447 M84.30174783904859 16.916230821564895 C84.06207767942377 17.0044316557935, 83.82240751979893 17.092632490022105, 83.20384997893109 17.3202673829447 M83.20384997893109 17.3202673829447 C82.76881601611994 17.449383179567178, 82.3337820533088 17.57849897618966, 82.08232115634853 17.653131250462284 M83.20384997893109 17.3202673829447 C82.83943513697842 17.42842379518371, 82.47502029502576 17.536580207422723, 82.08232115634853 17.653131250462284 M82.08232115634853 17.653131250462284 C81.76659593014432 17.725193473043745, 81.45087070394013 17.797255695625207, 80.94176997380005 17.91345461508694 M82.08232115634853 17.653131250462284 C81.62712780609326 17.75702616224384, 81.17193445583797 17.860921074025395, 80.94176997380005 17.91345461508694 M80.94176997380005 17.91345461508694 C80.55565387000449 17.9758788723735, 80.16953776620895 18.038303129660058, 79.78688320074224 18.100167752274242 M80.94176997380005 17.91345461508694 C80.53439285965719 17.979316187644855, 80.12701574551431 18.045177760202773, 79.78688320074224 18.100167752274242 M79.78688320074224 18.100167752274242 C79.40764897179737 18.136752022244664, 79.0284147428525 18.173336292215087, 78.622406514648 18.21250341769364 M79.78688320074224 18.100167752274242 C79.36441685294209 18.140922572756402, 78.94195050514193 18.181677393238566, 78.622406514648 18.21250341769364 M78.622406514648 18.21250341769364 C78.29870009235843 18.22288405260014, 77.97499367006886 18.233264687506637, 77.453125 18.25 M78.622406514648 18.21250341769364 C78.20849141690336 18.225776869241447, 77.7945763191587 18.239050320789254, 77.453125 18.25 M77.453125 18.25 C77.453125 18.25, 77.453125 18.25, 77.453125 18.25 M77.453125 18.25 C77.453125 18.25, 77.453125 18.25, 77.453125 18.25 M77.453125 18.25 C38.944937384896924 18.25, 0.43674976979384894 18.25, -77.453125 18.25 M77.453125 18.25 C19.740947330561546 18.25, -37.97123033887691 18.25, -77.453125 18.25 M-77.453125 18.25 C-77.87326835451125 18.236526820380252, -78.29341170902251 18.223053640760508, -78.622406514648 18.21250341769364 M-77.453125 18.25 C-77.70949803648435 18.24177861571979, -77.96587107296871 18.23355723143958, -78.622406514648 18.21250341769364 M-78.622406514648 18.21250341769364 C-78.98492294956901 18.17753189320661, -79.34743938449003 18.14256036871958, -79.78688320074224 18.100167752274242 M-78.622406514648 18.21250341769364 C-78.94970577441279 18.18092925173908, -79.27700503417759 18.14935508578452, -79.78688320074224 18.100167752274242 M-79.78688320074224 18.100167752274242 C-80.10525795989221 18.048695390248007, -80.42363271904217 17.99722302822177, -80.94176997380005 17.91345461508694 M-79.78688320074224 18.100167752274242 C-80.10715160310052 18.04838924069951, -80.4274200054588 17.996610729124775, -80.94176997380005 17.91345461508694 M-80.94176997380005 17.91345461508694 C-81.32830128172819 17.825231366404854, -81.71483258965633 17.737008117722766, -82.0823211563485 17.653131250462287 M-80.94176997380005 17.91345461508694 C-81.34339243847475 17.82178690835645, -81.74501490314945 17.73011920162596, -82.0823211563485 17.653131250462287 M-82.0823211563485 17.653131250462287 C-82.41327361490094 17.554906297968827, -82.74422607345339 17.456681345475367, -83.20384997893106 17.320267382944706 M-82.0823211563485 17.653131250462287 C-82.34345180554836 17.575629044482522, -82.60458245474821 17.498126838502753, -83.20384997893106 17.320267382944706 M-83.20384997893106 17.320267382944706 C-83.57424690845477 17.183957888968298, -83.94464383797849 17.04764839499189, -84.30174783904857 16.9162308215649 M-83.20384997893106 17.320267382944706 C-83.46299334416118 17.224900229045016, -83.72213670939131 17.12953307514532, -84.30174783904857 16.9162308215649 M-84.30174783904857 16.9162308215649 C-84.61015015536164 16.779710264562773, -84.9185524716747 16.64318970756065, -85.37150323889543 16.44268183921915 M-84.30174783904857 16.9162308215649 C-84.60866564790454 16.78036741197768, -84.91558345676053 16.64450400239046, -85.37150323889543 16.44268183921915 M-85.37150323889543 16.44268183921915 C-85.72639719316263 16.257533890598378, -86.08129114742984 16.072385941977604, -86.40872032407185 15.90156635025186 M-85.37150323889543 16.44268183921915 C-85.62396483742985 16.310972784973117, -85.87642643596426 16.17926373072708, -86.40872032407185 15.90156635025186 M-86.40872032407185 15.90156635025186 C-86.75501175535702 15.69164244957246, -87.10130318664218 15.481718548893058, -87.4091369470925 15.2951079142761 M-86.40872032407185 15.90156635025186 C-86.72869242108447 15.707597384678055, -87.04866451809708 15.513628419104247, -87.4091369470925 15.2951079142761 M-87.4091369470925 15.2951079142761 C-87.7233285998776 15.075941418430654, -88.0375202526627 14.856774922585208, -88.3686421814647 14.62579859909021 M-87.4091369470925 15.2951079142761 C-87.7466668411844 15.059661671591206, -88.08419673527632 14.824215428906314, -88.3686421814647 14.62579859909021 M-88.3686421814647 14.62579859909021 C-88.72412175163127 14.342313101591005, -89.07960132179785 14.058827604091801, -89.28329321436713 13.896388740236707 M-88.3686421814647 14.62579859909021 C-88.70089157569788 14.360838548716941, -89.03314096993107 14.095878498343673, -89.28329321436713 13.896388740236707 M-89.28329321436713 13.896388740236707 C-89.47109856352235 13.725828891191185, -89.65890391267756 13.555269042145662, -90.14933154851362 13.109875639283537 M-89.28329321436713 13.896388740236707 C-89.5187211642853 13.682579305203241, -89.75414911420347 13.468769870169773, -90.14933154851362 13.109875639283537 M-90.14933154851362 13.109875639283537 C-90.4705703992167 12.77817015173248, -90.79180924991977 12.446464664181422, -90.96319844662452 12.26949124726903 M-90.14933154851362 13.109875639283537 C-90.36598526803205 12.886162886279584, -90.58263898755048 12.66245013327563, -90.96319844662452 12.26949124726903 M-90.96319844662452 12.26949124726903 C-91.1213009287293 12.08377507550267, -91.27940341083408 11.898058903736308, -91.72154955504155 11.37868888392189 M-90.96319844662452 12.26949124726903 C-91.20192234622694 11.989072571021326, -91.44064624582936 11.708653894773622, -91.72154955504155 11.37868888392189 M-91.72154955504155 11.37868888392189 C-91.86488360215984 11.186634318783705, -92.00821764927812 10.99457975364552, -92.42126864639444 10.441129047229602 M-91.72154955504155 11.37868888392189 C-91.89098355233362 11.151662763305211, -92.06041754962568 10.92463664268853, -92.42126864639444 10.441129047229602 M-92.42126864639444 10.441129047229602 C-92.65482240990205 10.082327748515066, -92.88837617340967 9.723526449800529, -93.05948042484756 9.460664371667093 M-92.42126864639444 10.441129047229602 C-92.62655332210615 10.125756658682528, -92.83183799781786 9.810384270135454, -93.05948042484756 9.460664371667093 M-93.05948042484756 9.460664371667093 C-93.19323085767499 9.223176934482037, -93.32698129050243 8.985689497296981, -93.63356234130725 8.441323796895245 M-93.05948042484756 9.460664371667093 C-93.28531427448358 9.05967350348134, -93.51114812411959 8.658682635295587, -93.63356234130725 8.441323796895245 M-93.63356234130725 8.441323796895245 C-93.81178923887269 8.071231830655904, -93.99001613643813 7.701139864416564, -94.14115537003858 7.387296011983693 M-93.63356234130725 8.441323796895245 C-93.78643061299509 8.123889559878421, -93.93929888468293 7.806455322861597, -94.14115537003858 7.387296011983693 M-94.14115537003858 7.387296011983693 C-94.26458051740275 7.08243351173129, -94.38800566476694 6.777571011478888, -94.58017370240813 6.302912243188875 M-94.14115537003858 7.387296011983693 C-94.24343059033528 7.13467424049397, -94.34570581063198 6.882052469004246, -94.58017370240813 6.302912243188875 M-94.58017370240813 6.302912243188875 C-94.67620306035343 6.01368711725799, -94.77223241829874 5.724461991327105, -94.94881331791905 5.192628456016342 M-94.58017370240813 6.302912243188875 C-94.67018764470744 6.03180459075741, -94.76020158700675 5.760696938325944, -94.94881331791905 5.192628456016342 M-94.94881331791905 5.192628456016342 C-95.03426384342397 4.866768567774022, -95.11971436892891 4.540908679531703, -95.24555939731827 4.061007044702742 M-94.94881331791905 5.192628456016342 C-95.022164213855 4.912909699333125, -95.09551510979097 4.6331909426499065, -95.24555939731827 4.061007044702742 M-95.24555939731827 4.061007044702742 C-95.29508049303772 3.8067266844706915, -95.34460158875716 3.5524463242386406, -95.46919254731371 2.91269808435918 M-95.24555939731827 4.061007044702742 C-95.31562575565908 3.701231103152768, -95.3856921139999 3.341455161602794, -95.46919254731371 2.91269808435918 M-95.46919254731371 2.91269808435918 C-95.50650375928888 2.6233196922119815, -95.54381497126404 2.333941300064783, -95.61879381132286 1.7524202228152057 M-95.46919254731371 2.91269808435918 C-95.51883890264976 2.5276507561544936, -95.56848525798581 2.142603427949808, -95.61879381132286 1.7524202228152057 M-95.61879381132286 1.7524202228152057 C-95.64142912748912 1.399856902627287, -95.66406444365539 1.0472935824393683, -95.69374844566255 0.5849412906827091 M-95.61879381132286 1.7524202228152057 C-95.64291087364052 1.3767775102754756, -95.66702793595816 1.0011347977357454, -95.69374844566255 0.5849412906827091 M-95.69374844566255 0.5849412906827091 C-95.69374844566255 0.1293330042802685, -95.69374844566255 -0.32627528212217205, -95.69374844566255 -0.5849412906827002 M-95.69374844566255 0.5849412906827091 C-95.69374844566255 0.318067647246598, -95.69374844566255 0.05119400381048689, -95.69374844566255 -0.5849412906827002 M-95.69374844566255 -0.5849412906827002 C-95.67388122694136 -0.8943892587955505, -95.65401400822017 -1.203837226908401, -95.61879381132286 -1.7524202228151808 M-95.69374844566255 -0.5849412906827002 C-95.67255325669268 -0.9150734673370129, -95.65135806772281 -1.2452056439913257, -95.61879381132286 -1.7524202228151808 M-95.61879381132286 -1.7524202228151808 C-95.57591470240074 -2.084982124177423, -95.5330355934786 -2.417544025539666, -95.46919254731371 -2.912698084359171 M-95.61879381132286 -1.7524202228151808 C-95.57244030729228 -2.1119288465416193, -95.5260868032617 -2.471437470268058, -95.46919254731371 -2.912698084359171 M-95.46919254731371 -2.912698084359171 C-95.40486622778165 -3.2430001397838586, -95.3405399082496 -3.573302195208546, -95.24555939731829 -4.061007044702734 M-95.46919254731371 -2.912698084359171 C-95.41187743579721 -3.206999068443303, -95.3545623242807 -3.5013000525274354, -95.24555939731829 -4.061007044702734 M-95.24555939731829 -4.061007044702734 C-95.13102511480244 -4.497775903407695, -95.01649083228659 -4.934544762112656, -94.94881331791906 -5.192628456016333 M-95.24555939731829 -4.061007044702734 C-95.15271959439208 -4.415045450285481, -95.05987979146587 -4.769083855868229, -94.94881331791906 -5.192628456016333 M-94.94881331791906 -5.192628456016333 C-94.83081916745685 -5.548008037393709, -94.71282501699463 -5.9033876187710845, -94.58017370240813 -6.302912243188851 M-94.94881331791906 -5.192628456016333 C-94.80614223270184 -5.622331033140169, -94.66347114748463 -6.052033610264004, -94.58017370240813 -6.302912243188851 M-94.58017370240813 -6.302912243188851 C-94.43648858406034 -6.657817263470682, -94.29280346571254 -7.012722283752513, -94.14115537003858 -7.387296011983684 M-94.58017370240813 -6.302912243188851 C-94.45118634234346 -6.621513516349524, -94.3221989822788 -6.940114789510197, -94.14115537003858 -7.387296011983684 M-94.14115537003858 -7.387296011983684 C-94.01533490234318 -7.648564905279896, -93.88951443464781 -7.909833798576108, -93.63356234130725 -8.441323796895237 M-94.14115537003858 -7.387296011983684 C-94.00690241636026 -7.666075142849731, -93.87264946268195 -7.944854273715778, -93.63356234130725 -8.441323796895237 M-93.63356234130725 -8.441323796895237 C-93.40794196612056 -8.841935619579601, -93.18232159093385 -9.242547442263966, -93.05948042484756 -9.460664371667086 M-93.63356234130725 -8.441323796895237 C-93.41680398095704 -8.826200214861101, -93.20004562060684 -9.211076632826964, -93.05948042484756 -9.460664371667086 M-93.05948042484756 -9.460664371667086 C-92.86909491870978 -9.753147634761401, -92.67870941257199 -10.045630897855714, -92.42126864639445 -10.441129047229596 M-93.05948042484756 -9.460664371667086 C-92.87914326248439 -9.73771068036547, -92.69880610012123 -10.014756989063857, -92.42126864639445 -10.441129047229596 M-92.42126864639445 -10.441129047229596 C-92.22910243379901 -10.698614265405375, -92.03693622120356 -10.956099483581154, -91.72154955504155 -11.378688883921884 M-92.42126864639445 -10.441129047229596 C-92.26875449496077 -10.64548411582569, -92.1162403435271 -10.849839184421784, -91.72154955504155 -11.378688883921884 M-91.72154955504155 -11.378688883921884 C-91.47871435687118 -11.66393692540702, -91.2358791587008 -11.949184966892156, -90.96319844662452 -12.269491247269025 M-91.72154955504155 -11.378688883921884 C-91.43969442980347 -11.7097719520375, -91.15783930456539 -12.040855020153113, -90.96319844662452 -12.269491247269025 M-90.96319844662452 -12.269491247269025 C-90.66305451058162 -12.579414503508742, -90.36291057453873 -12.88933775974846, -90.14933154851363 -13.10987563928352 M-90.96319844662452 -12.269491247269025 C-90.76147191404878 -12.477790454209801, -90.55974538147306 -12.686089661150575, -90.14933154851363 -13.10987563928352 M-90.14933154851363 -13.10987563928352 C-89.88024147991375 -13.354256119852868, -89.61115141131387 -13.598636600422218, -89.28329321436715 -13.896388740236691 M-90.14933154851363 -13.10987563928352 C-89.88676659903521 -13.348330179311949, -89.62420164955678 -13.58678471934038, -89.28329321436715 -13.896388740236691 M-89.28329321436715 -13.896388740236691 C-88.97318223045092 -14.143693997510024, -88.6630712465347 -14.390999254783354, -88.3686421814647 -14.625798599090205 M-89.28329321436715 -13.896388740236691 C-89.0989826648704 -14.04337149875064, -88.91467211537366 -14.190354257264586, -88.3686421814647 -14.625798599090205 M-88.3686421814647 -14.625798599090205 C-88.16181024380596 -14.770075605190659, -87.95497830614724 -14.914352611291113, -87.40913694709252 -15.295107914276086 M-88.3686421814647 -14.625798599090205 C-87.9942277205533 -14.886973918881216, -87.61981325964189 -15.148149238672225, -87.40913694709252 -15.295107914276086 M-87.40913694709252 -15.295107914276086 C-87.20777622697453 -15.41717396613855, -87.00641550685654 -15.539240018001014, -86.40872032407187 -15.901566350251855 M-87.40913694709252 -15.295107914276086 C-87.1550007634174 -15.449166762289932, -86.90086457974228 -15.60322561030378, -86.40872032407187 -15.901566350251855 M-86.40872032407187 -15.901566350251855 C-86.0270366459699 -16.10069048063759, -85.64535296786792 -16.299814611023326, -85.37150323889544 -16.442681839219148 M-86.40872032407187 -15.901566350251855 C-86.0486427562122 -16.08941858676355, -85.68856518835256 -16.277270823275245, -85.37150323889544 -16.442681839219148 M-85.37150323889544 -16.442681839219148 C-85.15154733350836 -16.540049793773896, -84.9315914281213 -16.637417748328645, -84.30174783904859 -16.91623082156489 M-85.37150323889544 -16.442681839219148 C-85.05166623511839 -16.584264193163623, -84.73182923134135 -16.7258465471081, -84.30174783904859 -16.91623082156489 M-84.30174783904859 -16.91623082156489 C-84.07158870019916 -17.000931512229236, -83.84142956134974 -17.085632202893585, -83.20384997893109 -17.3202673829447 M-84.30174783904859 -16.91623082156489 C-83.96749371823081 -17.039239427837053, -83.63323959741305 -17.162248034109215, -83.20384997893109 -17.3202673829447 M-83.20384997893109 -17.3202673829447 C-82.83165176112254 -17.43073386028196, -82.459453543314 -17.541200337619227, -82.08232115634853 -17.65313125046228 M-83.20384997893109 -17.3202673829447 C-82.89548819373165 -17.41178754216785, -82.58712640853221 -17.503307701391, -82.08232115634853 -17.65313125046228 M-82.08232115634853 -17.65313125046228 C-81.81211554076974 -17.714803918961714, -81.54190992519095 -17.776476587461143, -80.94176997380005 -17.91345461508694 M-82.08232115634853 -17.65313125046228 C-81.72423494012578 -17.73486209258418, -81.36614872390305 -17.816592934706083, -80.94176997380005 -17.91345461508694 M-80.94176997380005 -17.91345461508694 C-80.65053327651658 -17.960539505729415, -80.3592965792331 -18.007624396371888, -79.78688320074225 -18.100167752274242 M-80.94176997380005 -17.91345461508694 C-80.5922374592243 -17.969964321378416, -80.24270494464854 -18.02647402766989, -79.78688320074225 -18.100167752274242 M-79.78688320074225 -18.100167752274242 C-79.52917391865569 -18.125028656776376, -79.2714646365691 -18.14988956127851, -78.622406514648 -18.21250341769364 M-79.78688320074225 -18.100167752274242 C-79.48245432000816 -18.129535640269363, -79.17802543927407 -18.158903528264485, -78.622406514648 -18.21250341769364 M-78.622406514648 -18.21250341769364 C-78.22313867515457 -18.225307160178488, -77.82387083566114 -18.23811090266334, -77.453125 -18.25 M-78.622406514648 -18.21250341769364 C-78.34009351009367 -18.22155664626077, -78.05778050553934 -18.2306098748279, -77.453125 -18.25 M-77.453125 -18.25 C-77.453125 -18.25, -77.453125 -18.25, -77.453125 -18.25 M-77.453125 -18.25 C-77.453125 -18.25, -77.453125 -18.25, -77.453125 -18.25" stroke="#8b5cf6" stroke-width="1.3" fill="none" stroke-dasharray="0 0" style=""/></g><g class="label" style="" transform="translate(-84.140625, -11.25)"><rect/><foreignObject width="168.28125" height="22.5"><div xmlns="http://www.w3.org/1999/xhtml" style="display: table-cell; white-space: nowrap; line-height: 1.5; max-width: 200px; text-align: center;"><span class="nodeLabel"><p>Người dùng / Trình duyệt</p></span></div></foreignObject></g></g><g class="node default store" id="my-svg-flowchart-DB-16" data-look="classic" transform="translate(100.84375, 1269.4124870300293)"><path d="M0,14.941661637497486 a92.84375,14.941661637497486 0,0,0 185.6875,0 a92.84375,14.941661637497486 0,0,0 -185.6875,0 l0,73.94166163749749 a92.84375,14.941661637497486 0,0,0 185.6875,0 l0,-73.94166163749749" class="basic label-container outer-path" style="fill:#eef2ff !important;stroke:#4f6bed !important" transform="translate(-92.84375, -51.91249245624623)"/><g class="label" style="color:#1a2a6b !important" transform="translate(-85.84375, -13.166666666666666)"><rect/><foreignObject width="171.6875" height="45"><div style="color: rgb(26, 42, 107) !important; display: table-cell; white-space: nowrap; line-height: 1.5; max-width: 200px; text-align: center;" xmlns="http://www.w3.org/1999/xhtml"><span style="color:#1a2a6b !important" class="nodeLabel"><p>PostgreSQL - Neon (prod)<br />SQLite (dev)</p></span></div></foreignObject></g></g><g class="node default ext" id="my-svg-flowchart-LLM-17" data-look="classic" transform="translate(364.890625, 1269.4124870300293)"><polygon points="14.75,0 227.65625,0 242.40625,-29.5 227.65625,-59 14.75,-59 0,-29.5" class="label-container" transform="translate(-121.203125,29.5)" style="fill:#ede9fe !important;stroke:#7c3aed !important"/><g class="label" style="color:#2a1b50 !important" transform="translate(-99.453125, -22.5)"><rect/><foreignObject width="198.90625" height="45"><div style="color: rgb(42, 27, 80) !important; display: table-cell; white-space: nowrap; line-height: 1.5; max-width: 200px; text-align: center;" xmlns="http://www.w3.org/1999/xhtml"><span style="color:#2a1b50 !important" class="nodeLabel"><p>LLM ngoài (chuỗi dự phòng)<br />Gemini, OpenAI, Groq, Ollama</p></span></div></foreignObject></g></g><g class="node default" id="my-svg-flowchart-CF-27" data-look="classic" transform="translate(844.21875, 923)"><rect class="basic label-container" style="" x="-113.328125" y="-25.25" width="226.65625" height="50.5"/><g class="label" style="" transform="translate(-85.328125, -11.25)"><rect/><foreignObject width="170.65625" height="22.5"><div xmlns="http://www.w3.org/1999/xhtml" style="display: table-cell; white-space: nowrap; line-height: 1.5; max-width: 200px; text-align: center;"><span class="nodeLabel"><p>Cloudflare Workers (CDN)</p></span></div></foreignObject></g></g><g class="node default" id="my-svg-flowchart-HF-29" data-look="classic" transform="translate(664.09375, 1269.4124870300293)"><rect class="basic label-container" style="" x="-128" y="-36.5" width="256" height="73"/><g class="label" style="" transform="translate(-100, -22.5)"><rect/><foreignObject width="200" height="45"><div xmlns="http://www.w3.org/1999/xhtml" style="display: table; white-space: break-spaces; line-height: 1.5; max-width: 200px; text-align: center; width: 200px;"><span class="nodeLabel"><p>Hugging Face Spaces (Docker)</p></span></div></foreignObject></g></g><g class="node default" id="my-svg-flowchart-NE-31" data-look="classic" transform="translate(100.84375, 1419.0749740600586)"><rect class="basic label-container" style="" x="-80.1640625" y="-25.25" width="160.328125" height="50.5"/><g class="label" style="" transform="translate(-52.1640625, -11.25)"><rect/><foreignObject width="104.328125" height="22.5"><div xmlns="http://www.w3.org/1999/xhtml" style="display: table-cell; white-space: nowrap; line-height: 1.5; max-width: 200px; text-align: center;"><span class="nodeLabel"><p>Neon serverless</p></span></div></foreignObject></g></g></g></g></g><defs><filter id="my-svg-drop-shadow" height="130%" width="130%"><feDropShadow dx="4" dy="4" stdDeviation="0" flood-opacity="0.06" flood-color="#000000"/></filter></defs><defs><filter id="my-svg-drop-shadow-small" height="150%" width="150%"><feDropShadow dx="2" dy="2" stdDeviation="0" flood-opacity="0.06" flood-color="#000000"/></filter></defs><linearGradient id="my-svg-gradient" gradientUnits="objectBoundingBox" x1="0%" y1="0%" x2="100%" y2="0%"><stop offset="0%" stop-color="#8b5cf6" stop-opacity="1"/><stop offset="100%" stop-color="hsl(225.8823529412, 60%, 86.6666666667%)" stop-opacity="1"/></linearGradient></svg>